# xmcd
#
# Track frame offsets:
#	187
#	17072
#	29434
#	41439
#	54189
#	67562
#	81199
#	94379
#	110012
#	119639
#
# Disc length: 1807 seconds
#
# Revision: 1
# Processed by: cddbd v1.5.2PL0 Copyright (c) Steve Scherf et al.
# Submitted via: EZCDAudioConverter 6.0.8.1
#
DISCID=7b070d0a
DTITLE=Charley Pride - Greatest Hits Volume 2
DYEAR=1995
DGENRE=Country
TTITLE0=Down On The Farm
TTITLE1=Night Games
TTITLE2=I Don't Think She's In Love Anymore
TTITLE3=Mountain Of Love
TTITLE4=Now And Then
TTITLE5=Let A Little Love Come In
TTITLE6=Ev'ry Heart Should Have One
TTITLE7=You're So Good When You're Bad
TTITLE8=Why Baby Why
TTITLE9=The Power Of Love
EXTD=
EXTT0=
EXTT1=
EXTT2=
EXTT3=
EXTT4=
EXTT5=
EXTT6=
EXTT7=
EXTT8=
EXTT9=
PLAYORDER=
